<mxfile host="app.diagrams.net" modified="2023-05-21T04:51:00.946Z" agent="Mozilla/5.0 (Windows NT 10.0; Win64; x64) AppleWebKit/537.36 (KHTML, like Gecko) Chrome/113.0.0.0 Safari/537.36" version="21.3.2" etag="gYBEkQ-d-qVjvI3vkgaH" type="github">
  <diagram name="Trang-1" id="Z7cpwEXeZ_N1gwQHV92o">
    <mxGraphModel>
      <root>
        <mxCell id="0" />
        <mxCell id="1" parent="0" />
      </root>
    </mxGraphModel>
  </diagram>
</mxfile>
